<svg width="104" height="104" viewBox="0 0 104 104" fill="none" xmlns="http://www.w3.org/2000/svg">
<path d="M79.0648 52.7627C88.7838 52.7627 95.3334 59.6456 95.3334 69.8439C95.3334 79.0211 87.8057 86.6667 77.61 86.6667C66.4424 86.6667 58.1905 77.4894 58.1905 63.4715C58.1905 31.6097 81.0086 18.865 95.3334 17.3333V31.3513C85.6205 33.135 74.7005 43.0749 74.2114 54.0422C74.7005 53.7901 76.6381 52.7627 79.0648 52.7627ZM29.5472 52.7627C39.2538 52.7627 45.8095 59.6456 45.8095 69.8439C45.8095 79.0211 38.2819 86.6667 28.0862 86.6667C16.9186 86.6667 8.66669 77.4894 8.66669 63.4715C8.66669 31.6097 31.4848 18.865 45.8095 17.3333V31.3513C36.0967 33.135 25.1767 43.0749 24.6876 54.0422C25.1767 53.7901 27.1143 52.7627 29.5472 52.7627Z" fill="white"/>
</svg>
